<?xml version="1.0" standalone="no"?><!DOCTYPE svg PUBLIC "-//W3C//DTD SVG 1.1//EN" "http://www.w3.org/Graphics/SVG/1.1/DTD/svg11.dtd"><svg t="1630748477848" class="icon" viewBox="0 0 1024 1024" version="1.1" xmlns="http://www.w3.org/2000/svg" p-id="8485" xmlns:xlink="http://www.w3.org/1999/xlink" width="200" height="200"><defs><style type="text/css"></style></defs><path d="M352.75992 413.811573q-4.897178-12.242946-16.650407-17.140124t-23.996174 0q-52.889527 21.547585-93.536107 62.194166t-62.194166 93.536107q-4.897178 12.242946 0 23.996174t17.140125 16.650406q6.366332 2.448589 11.753228 2.448589 20.568149 0 29.38307-19.588713 16.650407-41.136298 48.237207-72.723099t72.723099-48.237207q12.242946-5.386896 17.140125-17.140125t0-23.996174z m461.314203-174.33955l22.527021 22.527021-119.491153 119.001434 33.300813 33.300813q9.304639 9.304639 9.304639 22.282162t-9.304639 22.282162l-31.341941 31.341941q43.584888 78.844572 43.584887 167.973219 0 70.029651-27.17934 133.937829t-73.457675 110.186513-110.186514 73.457676-133.937829 27.17934-133.937829-27.17934-110.186513-73.457676-73.457676-110.186513-27.17934-133.937829 27.17934-133.937829 73.457676-110.186514 110.186513-73.457675 133.937829-27.17934q89.128647 0 167.973219 43.584887l31.341941-31.341941q9.304639-9.304639 22.282162-9.304639t22.282162 9.304639l33.300813 33.300813z m3.917743-27.424199q-4.897178 4.897178-10.773792 4.897178-6.366332 0-11.263511-4.897178l-44.564323-44.074605q-4.407461-4.897178-4.40746-11.263511t4.40746-11.26351q4.897178-4.407461 11.26351-4.407461t11.263511 4.407461l44.074605 44.564323q4.897178 4.407461 4.897178 11.018652t-4.897178 11.018651z m112.635103 112.635103q-5.386896 4.407461-11.26351 4.40746t-11.263511-4.40746l-44.074605-44.564323q-4.897178-4.407461-4.897178-11.018652t4.897178-11.018651q4.407461-4.897178 11.018651-4.897179t11.018652 4.897179l44.564323 44.074605q4.407461 4.897178 4.40746 11.263511t-4.40746 11.26351z m20.078431-89.618365q0 6.85605-4.40746 11.263511t-11.263511 4.40746h-47.012912q-6.85605 0-11.26351-4.40746t-4.407461-11.263511 4.407461-11.26351 11.26351-4.40746h47.012912q6.85605 0 11.263511 4.40746t4.40746 11.26351z m-94.025825-94.025825v47.012913q0 6.85605-4.40746 11.26351t-11.263511 4.407461-11.26351-4.407461-4.40746-11.26351v-47.012913q0-6.85605 4.40746-11.26351t11.26351-4.40746 11.263511 4.40746 4.40746 11.26351z m73.947394 26.934482l-44.564323 44.074605q-4.897178 4.897178-10.773793 4.897178-6.366332 0-11.26351-4.897178-4.897178-4.407461-4.897178-11.018651t4.897178-11.018652l44.074605-44.564323q4.897178-4.407461 11.263511-4.407461t11.26351 4.407461q4.407461 4.897178 4.40746 11.26351t-4.40746 11.263511z" p-id="8486"></path></svg>