<svg t="1646560118011" class="icon" viewBox="0 0 1024 1024" version="1.1" xmlns="http://www.w3.org/2000/svg" p-id="1998" width="200" height="200"><path d="M877.3632 253.5424h-78.6944V200.192c0-22.0672-17.8688-39.936-39.936-39.936h-482.304c-22.0672 0-39.936 17.8688-39.936 39.936v53.3504H152.1664c-22.0672 0-39.936 17.8688-39.936 39.936v84.0704c0 65.6384 53.248 118.8864 118.8864 118.8864h5.4784c1.9968 142.0288 109.2608 258.56 247.3472 275.0464v89.7536H367.0016a30.8224 30.8224 0 1 0 0 61.6448h295.5264a30.8224 30.8224 0 1 0 0-61.6448h-116.9408v-89.088c140.8-13.9264 251.0336-131.7376 253.0304-275.7632 65.5872-0.1024 118.6816-53.2992 118.6816-118.8864V293.4272c0-22.016-17.8688-39.8848-39.936-39.8848z m-175.1552 213.3504a30.8224 30.8224 0 1 1-61.6448 0v-150.528a30.8224 30.8224 0 1 1 61.6448 0v150.528z" fill="#FCDFAE" p-id="1999"></path><path d="M877.3632 211.7632h-78.6944V158.4128c0-22.0672-17.8688-39.936-39.936-39.936h-482.304c-22.0672 0-39.936 17.8688-39.936 39.936v53.3504H152.1664c-22.0672 0-39.936 17.8688-39.936 39.936v84.0704c0 65.6384 53.248 118.8864 118.8864 118.8864h5.4784c1.9968 142.0288 109.2608 258.56 247.3472 275.0464v89.7536H367.0016a30.8224 30.8224 0 1 0 0 61.6448h295.5264a30.8224 30.8224 0 1 0 0-61.6448h-116.9408v-89.088c140.8-13.9264 251.0336-131.7376 253.0304-275.7632 65.5872-0.1024 118.6816-53.2992 118.6816-118.8864V251.648c0-22.016-17.8688-39.8848-39.936-39.8848z m-175.1552 213.3504a30.8224 30.8224 0 1 1-61.6448 0v-150.528a30.8224 30.8224 0 1 1 61.6448 0v150.528z" fill="#F8B62D" p-id="2000"></path></svg>