<?xml version="1.0" standalone="no"?><!DOCTYPE svg PUBLIC "-//W3C//DTD SVG 1.1//EN" "http://www.w3.org/Graphics/SVG/1.1/DTD/svg11.dtd"><svg t="1650032119401" class="icon" viewBox="0 0 1024 1024" version="1.1" xmlns="http://www.w3.org/2000/svg" p-id="1647" xmlns:xlink="http://www.w3.org/1999/xlink" width="200" height="200"><defs><style type="text/css">@font-face { font-family: feedback-iconfont; src: url("//at.alicdn.com/t/font_1031158_u69w8yhxdu.woff2?t=1630033759944") format("woff2"), url("//at.alicdn.com/t/font_1031158_u69w8yhxdu.woff?t=1630033759944") format("woff"), url("//at.alicdn.com/t/font_1031158_u69w8yhxdu.ttf?t=1630033759944") format("truetype"); }
</style></defs><path d="M512 512m-435.2 0a435.2 435.2 0 1 0 870.4 0 435.2 435.2 0 1 0-870.4 0Z" fill="#FE6D68" p-id="1648"></path><path d="M563.2 512l108.8-108.8c12.8-12.8 12.8-38.4 0-51.2-12.8-12.8-38.4-12.8-51.2 0L512 460.8 403.2 352c-12.8-12.8-38.4-12.8-51.2 0-12.8 12.8-12.8 38.4 0 51.2L460.8 512 352 620.8c-12.8 12.8-12.8 38.4 0 51.2 12.8 12.8 38.4 12.8 51.2 0L512 563.2l108.8 108.8c12.8 12.8 38.4 12.8 51.2 0 12.8-12.8 12.8-38.4 0-51.2L563.2 512z" fill="#FFFFFF" p-id="1649"></path></svg>