<?xml version="1.0" standalone="no"?><!DOCTYPE svg PUBLIC "-//W3C//DTD SVG 1.1//EN" "http://www.w3.org/Graphics/SVG/1.1/DTD/svg11.dtd"><svg t="1630745856328" class="icon" viewBox="0 0 1024 1024" version="1.1" xmlns="http://www.w3.org/2000/svg" p-id="7765" id="mx_n_1630745856329" data-spm-anchor-id="a313x.7781069.0.i4" xmlns:xlink="http://www.w3.org/1999/xlink" width="200" height="200"><defs><style type="text/css"></style></defs><path d="M640 384H384v256h256V384z m-85.333333 170.666667h-85.333334v-85.333334h85.333334v85.333334z m341.333333-85.333334V384h-85.333333V298.666667c0-46.933333-38.4-85.333333-85.333334-85.333334h-85.333333V128h-85.333333v85.333333h-85.333334V128H384v85.333333H298.666667c-46.933333 0-85.333333 38.4-85.333334 85.333334v85.333333H128v85.333333h85.333333v85.333334H128v85.333333h85.333333v85.333333c0 46.933333 38.4 85.333333 85.333334 85.333334h85.333333v85.333333h85.333333v-85.333333h85.333334v85.333333h85.333333v-85.333333h85.333333c46.933333 0 85.333333-38.4 85.333334-85.333334v-85.333333h85.333333v-85.333333h-85.333333v-85.333334h85.333333z m-170.666667 256H298.666667V298.666667h426.666666v426.666666z" p-id="7766" data-spm-anchor-id="a313x.7781069.0.i5" class=""></path></svg>