<?xml version="1.0" standalone="no"?><!DOCTYPE svg PUBLIC "-//W3C//DTD SVG 1.1//EN" "http://www.w3.org/Graphics/SVG/1.1/DTD/svg11.dtd"><svg t="1630750148457" class="icon" viewBox="0 0 1024 1024" version="1.1" xmlns="http://www.w3.org/2000/svg" p-id="9369" xmlns:xlink="http://www.w3.org/1999/xlink" width="200" height="200"><defs><style type="text/css"></style></defs><path d="M854 65c19.722 0 35.732 15.856 36 35.503v0.596l-1 363c-0.055 19.882-16.217 35.956-36.1 35.9-19.683-0.053-35.633-15.894-35.897-35.503l-0.003-0.595 0.901-326.901H208v721h240c19.683 0 35.677 15.797 35.995 35.405L484 894c0 19.683-15.797 35.677-35.405 36H172c-19.683 0-35.677-15.797-36-35.405V101c0-19.683 15.797-35.677 35.405-36H854z" p-id="9370"></path><path d="M704 284c19.882 0 36 16.118 36 36 0 19.683-15.797 35.677-35.405 35.995L704 356H320c-19.882 0-36-16.118-36-36 0-19.683 15.797-35.677 35.405-35.995L320 284h384zM320.594 429.5l192.5 0.5c19.882 0.052 35.958 16.211 35.906 36.094-0.051 19.683-15.89 35.636-35.498 35.903l-0.596 0.003-192.5-0.5c-19.882-0.052-35.958-16.211-35.906-36.094 0.051-19.683 15.89-35.636 35.498-35.903l0.596-0.003z" p-id="9371"></path><path d="M512 686m37.5 0l300 0q37.5 0 37.5 37.5l0 0q0 37.5-37.5 37.5l-300 0q-37.5 0-37.5-37.5l0 0q0-37.5 37.5-37.5Z" p-id="9372"></path><path d="M754.123846 575.090837m26.516504 26.516504l94.752309 94.752309q26.516504 26.516504 0 53.033009l0 0q-26.516504 26.516504-53.033009 0l-94.752309-94.752309q-26.516504-26.516504 0-53.033009l0 0q26.516504-26.516504 53.033009 0Z" p-id="9373"></path><path d="M754.123856 871.909188m26.516504-26.516505l94.752309-94.752308q26.516504-26.516504 0-53.033009l0 0q-26.516504-26.516504-53.033009 0l-94.752308 94.752309q-26.516504 26.516504 0 53.033008l0 0q26.516504 26.516504 53.033008 0Z" p-id="9374"></path></svg>