<?xml version="1.0" standalone="no"?><!DOCTYPE svg PUBLIC "-//W3C//DTD SVG 1.1//EN" "http://www.w3.org/Graphics/SVG/1.1/DTD/svg11.dtd"><svg t="1650032113892" class="icon" viewBox="0 0 1024 1024" version="1.1" xmlns="http://www.w3.org/2000/svg" p-id="1507" xmlns:xlink="http://www.w3.org/1999/xlink" width="200" height="200"><defs><style type="text/css">@font-face { font-family: feedback-iconfont; src: url("//at.alicdn.com/t/font_1031158_u69w8yhxdu.woff2?t=1630033759944") format("woff2"), url("//at.alicdn.com/t/font_1031158_u69w8yhxdu.woff?t=1630033759944") format("woff"), url("//at.alicdn.com/t/font_1031158_u69w8yhxdu.ttf?t=1630033759944") format("truetype"); }
</style></defs><path d="M512 76.8c-236.8 0-435.2 192-435.2 435.2s192 435.2 435.2 435.2 435.2-192 435.2-435.2S748.8 76.8 512 76.8z m249.6 320L480 704c-12.8 12.8-38.4 12.8-51.2 0L288 556.8c-12.8-12.8-12.8-38.4 0-51.2 12.8-12.8 38.4-12.8 51.2 0l115.2 115.2L704 339.2c12.8-12.8 38.4-12.8 51.2 0 25.6 12.8 25.6 38.4 6.4 57.6z" fill="#68D279" p-id="1508"></path><path d="M710.4 339.2l-256 281.6-115.2-115.2c-12.8-12.8-38.4-12.8-51.2 0-12.8 12.8-12.8 38.4 0 51.2l147.2 140.8c12.8 12.8 38.4 12.8 51.2 0L768 390.4c12.8-12.8 12.8-38.4 0-51.2-19.2-12.8-44.8-12.8-57.6 0z" fill="#FFFFFF" p-id="1509"></path></svg>