<?xml version="1.0" standalone="no"?><!DOCTYPE svg PUBLIC "-//W3C//DTD SVG 1.1//EN" "http://www.w3.org/Graphics/SVG/1.1/DTD/svg11.dtd"><svg t="1653653284075" class="icon" viewBox="0 0 1024 1024" version="1.1" xmlns="http://www.w3.org/2000/svg" p-id="2376" xmlns:xlink="http://www.w3.org/1999/xlink" width="200" height="200"><defs><style type="text/css">@font-face { font-family: feedback-iconfont; src: url("//at.alicdn.com/t/font_1031158_u69w8yhxdu.woff2?t=1630033759944") format("woff2"), url("//at.alicdn.com/t/font_1031158_u69w8yhxdu.woff?t=1630033759944") format("woff"), url("//at.alicdn.com/t/font_1031158_u69w8yhxdu.ttf?t=1630033759944") format("truetype"); }
</style></defs><path d="M545.28 409.088l66.56 357.376c2.048 11.776-7.168 23.04-18.944 23.04h-24.064c-9.728 0-17.408-6.656-18.944-16.384l-8.192-49.664c-1.536-9.216-9.728-16.384-18.944-16.384H427.52c-7.68 0-14.336 4.608-17.408 11.264L382.976 778.24c-3.072 6.656-10.24 11.264-17.408 11.264h-26.112c-14.336 0-23.552-14.848-17.408-27.648l166.4-341.504c3.072-6.656 10.24-10.752 17.408-10.752h39.424v-0.512z m-39.424 103.936l-49.664 107.008c-6.144 12.8 3.584 27.648 17.408 27.648h32.768c11.776 0 20.992-10.752 18.944-22.528l-17.92-111.616-1.536-0.512zM763.392 522.752h-99.328c-16.896 0-30.208-13.824-30.208-30.208 0-16.896 13.824-30.208 30.208-30.208h99.328c16.896 0 30.208 13.824 30.208 30.208 0 16.896-13.312 30.208-30.208 30.208zM763.392 629.76h-99.328c-16.896 0-30.208-13.824-30.208-30.208 0-16.896 13.824-30.208 30.208-30.208h99.328c16.896 0 30.208 13.824 30.208 30.208s-13.312 30.208-30.208 30.208zM769.024 736.256h-99.328c-16.896 0-30.208-13.824-30.208-30.208 0-16.896 13.824-30.208 30.208-30.208h99.328c16.896 0 30.208 13.824 30.208 30.208 0.512 16.896-13.312 30.208-30.208 30.208z" p-id="2377"></path><path d="M866.816 956.928h-593.92c-39.936 0-72.192-32.768-72.192-72.192v-593.92c0-39.936 32.768-72.192 72.192-72.192h593.408c39.936 0 72.192 32.768 72.192 72.192v593.408c0.512 39.936-31.744 72.704-71.68 72.704zM273.408 273.92c-9.216 0-16.896 7.68-16.896 16.896v593.408c0 9.216 7.68 16.896 16.896 16.896h593.408c9.216 0 16.896-7.68 16.896-16.896V290.816c0-9.216-7.68-16.896-16.896-16.896H273.408zM204.288 820.736c-76.288 0-138.24-61.952-138.24-138.24v-527.36c0-39.936 32.768-72.192 72.192-72.192h527.872c76.288 0 138.24 61.952 138.24 138.24h-55.808c0-45.568-36.864-82.432-82.432-82.432H138.24c-9.216 0-16.896 7.68-16.896 16.896v527.872c0 45.568 36.864 82.432 82.432 82.432l0.512 54.784z" p-id="2378"></path></svg>