<?xml version="1.0" standalone="no"?><!DOCTYPE svg PUBLIC "-//W3C//DTD SVG 1.1//EN" "http://www.w3.org/Graphics/SVG/1.1/DTD/svg11.dtd"><svg t="1653653604738" class="icon" viewBox="0 0 1024 1024" version="1.1" xmlns="http://www.w3.org/2000/svg" p-id="9161" xmlns:xlink="http://www.w3.org/1999/xlink" width="200" height="200"><defs><style type="text/css">@font-face { font-family: feedback-iconfont; src: url("//at.alicdn.com/t/font_1031158_u69w8yhxdu.woff2?t=1630033759944") format("woff2"), url("//at.alicdn.com/t/font_1031158_u69w8yhxdu.woff?t=1630033759944") format("woff"), url("//at.alicdn.com/t/font_1031158_u69w8yhxdu.ttf?t=1630033759944") format("truetype"); }
</style></defs><path d="M512 0C230.4 0 0 230.4 0 512c0 281.6 230.4 512 512 512 281.6 0 512-230.4 512-512C1024 230.4 793.6 0 512 0zM704 644.266667c-4.266667 0-8.533333 0-12.8 0-38.4 4.266667-81.066667 8.533333-123.733333 8.533333-17.066667 0-38.4 0-55.466667 0-21.333333 0-38.4 0-55.466667 0-42.666667 0-85.333333-4.266667-123.733333-8.533333-4.266667-29.866667-4.266667-59.733333-8.533333-89.6 0-12.8 0-29.866667 0-42.666667 0-12.8 0-29.866667 0-42.666667 0-29.866667 4.266667-59.733333 8.533333-89.6 0-4.266667 0-12.8 4.266667-17.066667 25.6-183.466667 93.866667-315.733333 179.2-315.733333C768 46.933333 977.066667 256 977.066667 512 977.066667 571.733333 866.133333 618.666667 704 644.266667zM704 379.733333c-4.266667-8.533333-8.533333-12.8-17.066667-21.333333-42.666667-51.2-106.666667-81.066667-179.2-81.066667-21.333333 0-42.666667 34.133333-55.466667 89.6-4.266667 21.333333-8.533333 46.933333-12.8 72.533333 0 21.333333-4.266667 42.666667-4.266667 68.266667 0 25.6 0 46.933333 4.266667 68.266667 21.333333 0 42.666667 4.266667 68.266667 4.266667 25.6 0 46.933333 0 68.266667-4.266667 46.933333-4.266667 89.6-12.8 119.466667-25.6 29.866667-12.8 46.933333-25.6 46.933333-42.666667C742.4 465.066667 729.6 418.133333 704 379.733333z" p-id="9162"></path></svg>