<?xml version="1.0" standalone="no"?><!DOCTYPE svg PUBLIC "-//W3C//DTD SVG 1.1//EN" "http://www.w3.org/Graphics/SVG/1.1/DTD/svg11.dtd"><svg t="1648794604958" class="icon" viewBox="0 0 1024 1024" version="1.1" xmlns="http://www.w3.org/2000/svg" p-id="2020" xmlns:xlink="http://www.w3.org/1999/xlink" width="200" height="200"><defs><style type="text/css">@font-face { font-family: feedback-iconfont; src: url("//at.alicdn.com/t/font_1031158_u69w8yhxdu.woff2?t=1630033759944") format("woff2"), url("//at.alicdn.com/t/font_1031158_u69w8yhxdu.woff?t=1630033759944") format("woff"), url("//at.alicdn.com/t/font_1031158_u69w8yhxdu.ttf?t=1630033759944") format("truetype"); }
</style></defs><path d="M708.923077 470.646154c-1.969231-55.138462-55.138462-88.615385-112.246154-114.215385-39.384615-17.723077-47.261538-33.476923-47.261538-51.2 0-17.723077 11.815385-33.476923 23.630769-47.261538C598.646154 236.307692 610.461538 204.8 610.461538 167.384615 610.461538 98.461538 571.076923 39.384615 498.215385 39.384615c-43.323077 0-72.861538 21.661538-92.553847 53.169231 49.230769 37.415385 78.769231 102.4 78.769231 177.230769 0 43.323077-11.815385 84.676923-33.476923 120.123077-7.876923 11.815385-3.938462 29.538462 9.846154 37.415385 41.353846 21.661538 88.615385 49.230769 116.184615 96.492308 3.938462 7.876923 11.815385 9.846154 21.661539 9.846153h53.169231c33.476923-1.969231 57.107692-25.6 57.107692-63.015384z" p-id="2021" fill="#8a8a8a"></path><path d="M387.938462 474.584615c-45.292308-19.692308-51.2-37.415385-51.2-57.107692s11.815385-39.384615 27.56923-53.169231c25.6-25.6 39.384615-61.046154 39.384616-102.4 0-76.8-45.292308-143.753846-124.061539-143.753846H275.692308h-1.969231c-78.769231 0-124.061538 66.953846-124.061539 143.753846 0 41.353846 13.784615 76.8 39.384616 102.4 15.753846 13.784615 27.569231 33.476923 27.569231 53.169231 0 19.692308-5.907692 37.415385-51.2 57.107692-64.984615 29.538462-126.030769 59.076923-128 120.123077C39.384615 638.030769 68.923077 669.538462 106.338462 669.538462h342.646153c37.415385 0 66.953846-31.507692 66.953847-72.861539-1.969231-63.015385-64.984615-92.553846-128-122.092308zM955.076923 669.538462H866.461538v-88.615385c0-15.753846-13.784615-29.538462-29.538461-29.538462h-59.076923c-15.753846 0-29.538462 13.784615-29.538462 29.538462V669.538462h-88.615384c-15.753846 0-29.538462 13.784615-29.538462 29.538461v59.076923c0 15.753846 13.784615 29.538462 29.538462 29.538462H748.307692v88.615384c0 15.753846 13.784615 29.538462 29.538462 29.538462h59.076923c15.753846 0 29.538462-13.784615 29.538461-29.538462V787.692308h88.615385c15.753846 0 29.538462-13.784615 29.538462-29.538462v-59.076923c0-15.753846-13.784615-29.538462-29.538462-29.538461z" p-id="2022" fill="#8a8a8a"></path></svg>