<?xml version="1.0" standalone="no"?><!DOCTYPE svg PUBLIC "-//W3C//DTD SVG 1.1//EN" "http://www.w3.org/Graphics/SVG/1.1/DTD/svg11.dtd"><svg t="1630762518990" class="icon" viewBox="0 0 1024 1024" version="1.1" xmlns="http://www.w3.org/2000/svg" p-id="11005" xmlns:xlink="http://www.w3.org/1999/xlink" width="200" height="200"><defs><style type="text/css"></style></defs><path d="M728.96 512C866.688 424.64 960 256.768 960 64c0-21.696-1.216-43.008-3.456-64H67.52a585.92 585.92 0 0 0-3.456 64c0 192.768 93.248 360.64 230.976 448-137.728 87.36-230.976 255.232-230.976 448 0 21.696 1.216 43.008 3.456 64h889.024c2.304-20.992 3.456-42.304 3.456-64 0-192.768-93.248-360.64-230.976-448zM160 960c0-186.944 80.192-345.408 224-397.696V461.696C240.192 409.408 160 250.88 160 64h704c0 186.944-80.192 345.408-224 397.696v100.608c143.808 52.288 224 210.816 224 397.696h-704z m459.648-290.432C547.968 628.928 544.064 576.192 544 544.192V479.936c0-32 3.776-84.928 75.776-125.632 38.528-22.336 71.808-56.32 97.024-98.368H307.2c25.28 42.048 58.624 76.032 97.152 98.432 71.68 40.64 75.584 93.376 75.648 125.376V544c0 32-3.776 84.928-75.776 125.632-72.64 42.176-126.72 125.696-143.104 226.368h501.696c-16.384-100.736-70.528-184.256-143.232-226.432z" fill="" p-id="11006"></path></svg>