<?xml version="1.0" standalone="no"?><!DOCTYPE svg PUBLIC "-//W3C//DTD SVG 1.1//EN" "http://www.w3.org/Graphics/SVG/1.1/DTD/svg11.dtd"><svg t="1630993340931" class="icon" viewBox="0 0 1024 1024" version="1.1" xmlns="http://www.w3.org/2000/svg" p-id="3133" xmlns:xlink="http://www.w3.org/1999/xlink" width="200" height="200"><defs><style type="text/css"></style></defs><path d="M870.4 65.1H153.6c-48.9 0-88.7 39.8-88.7 88.7v716.3c0 48.9 39.8 88.7 88.7 88.7h716.8c48.9 0 88.7-39.8 88.7-88.7V153.8c0-48.9-39.8-88.7-88.7-88.7z m-454 542.5V416.4h191.2v191.2H416.4z m191.2 80v191.2H416.4V687.6h191.2zM144.9 416.4h191.5v191.2H144.9V416.4z m542.7 0h191.5v191.2H687.6V416.4z m-534-271.3h716.8c4.8 0 8.7 3.9 8.7 8.7v182.6H144.9V153.8c0-4.8 3.9-8.7 8.7-8.7z m-8.7 725.1V687.6h191.5v191.2H153.6c-4.8 0.1-8.7-3.8-8.7-8.6z m725.5 8.7H687.6V687.6h191.5v182.6c0 4.8-3.9 8.7-8.7 8.7z" p-id="3134"></path></svg>